<svg width="25.000000" height="25.000000" viewBox="0 0 25 25" fill="none" xmlns="http://www.w3.org/2000/svg" xmlns:xlink="http://www.w3.org/1999/xlink">
	<defs/>
	<path id="Vector" d="M23.75 5L21.25 5L21.25 16.25L5 16.25L5 18.75C5 19.43 5.56 20 6.25 20L20 20L25 25L25 6.25C25 5.56 24.43 5 23.75 5ZM18.75 12.5L18.75 1.25C18.75 0.56 18.18 0 17.5 0L1.25 0C0.56 0 0 0.56 0 1.25L0 18.75L5 13.75L17.5 13.75C18.18 13.75 18.75 13.18 18.75 12.5Z" fill="#43607C" fill-opacity="1.000000" fill-rule="nonzero"/>
</svg>
