<svg width="25.000000" height="25.000000" viewBox="0 0 25 25" fill="none" xmlns="http://www.w3.org/2000/svg" xmlns:xlink="http://www.w3.org/1999/xlink">
	<defs/>
	<path id="Vector" d="M12.5 0C5.6 0 0 5.59 0 12.5C0 19.4 5.6 25 12.5 25C19.39 25 25 19.4 25 12.5C25 5.59 19.39 0 12.5 0ZM12.5 3.75C14.57 3.75 16.25 5.42 16.25 7.5C16.25 9.57 14.57 11.25 12.5 11.25C10.42 11.25 8.75 9.57 8.75 7.5C8.75 5.42 10.42 3.75 12.5 3.75ZM12.5 21.5C9.37 21.5 6.61 19.9 5 17.47C5.03 14.98 10 13.62 12.5 13.62C14.98 13.62 19.96 14.98 20 17.47C18.38 19.9 15.62 21.5 12.5 21.5Z" fill="#43607C" fill-opacity="1.000000" fill-rule="nonzero"/>
</svg>
