<svg width="14.000000" height="20.000000" viewBox="0 0 14 20" fill="none" xmlns="http://www.w3.org/2000/svg" xmlns:xlink="http://www.w3.org/1999/xlink">
	<defs/>
	<path id="Vector" d="M7 0C3.12 0 0 3.13 0 7C0 8.74 0.5 10.36 1.41 11.83C2.35 13.38 3.6 14.69 4.56 16.24C5.04 16.99 5.37 17.68 5.74 18.5C6 19.05 6.2 20 7 20C7.79 20 8 19.05 8.25 18.5C8.62 17.68 8.95 16.99 9.41 16.24C10.37 14.71 11.62 13.39 12.58 11.83C13.5 10.36 14 8.74 14 7C14 3.13 10.87 0 7 0ZM7 9.75C5.62 9.75 4.5 8.63 4.5 7.25C4.5 5.86 5.62 4.75 7 4.75C8.37 4.75 9.5 5.86 9.5 7.25C9.5 8.63 8.37 9.75 7 9.75Z" fill="#A63A50" fill-opacity="1.000000" fill-rule="nonzero"/>
</svg>
