<svg width="25.000000" height="25.000000" viewBox="0 0 25 25" fill="none" xmlns="http://www.w3.org/2000/svg" xmlns:xlink="http://www.w3.org/1999/xlink">
	<desc>
			Created with Pixso.
	</desc>
	<defs>
		<clipPath id="clip19_5842">
			<rect id="settings_backup_restore" rx="-0.500000" width="24.000000" height="24.000000" transform="translate(0.500000 0.500000)" fill="white" fill-opacity="0"/>
		</clipPath>
	</defs>
	<g clip-path="url(#clip19_5842)">
		<path id="Vector" d="M14.58 12.5C14.58 11.35 13.64 10.41 12.5 10.41C11.35 10.41 10.41 11.35 10.41 12.5C10.41 13.64 11.35 14.58 12.5 14.58C13.64 14.58 14.58 13.64 14.58 12.5ZM12.5 3.12C7.32 3.12 3.12 7.32 3.12 12.5L0 12.5L4.16 16.66L8.33 12.5L5.2 12.5C5.2 8.46 8.46 5.2 12.5 5.2C16.53 5.2 19.79 8.46 19.79 12.5C19.79 16.53 16.53 19.79 12.5 19.79C10.92 19.79 9.46 19.28 8.27 18.43L6.79 19.93C8.37 21.14 10.35 21.87 12.5 21.87C17.67 21.87 21.87 17.67 21.87 12.5C21.87 7.32 17.67 3.12 12.5 3.12Z" fill="#43607C" fill-opacity="1.000000" fill-rule="nonzero"/>
	</g>
</svg>
